<svg xmlns="http://www.w3.org/2000/svg" version="1.1" xmlns:xlink="http://www.w3.org/1999/xlink" xmlns:svgjs="http://svgjs.dev/svgjs" width="1440" height="560" preserveAspectRatio="none" viewBox="0 0 1440 560"><g mask="url(&quot;#SvgjsMask1014&quot;)" fill="none"><rect width="1440" height="560" x="0" y="0" fill="#0e2a47"></rect><path d="M301.46828794739105 588.180126176912L374.66121118988303 560.0839953250115 295.9205532907863 464.3426758872237z" fill="rgba(28, 83, 142, 0.4)" class="triangle-float3"></path><path d="M457.25995541274284 217.52416828413013L564.9244724402364 133.40742864576168 480.80773280186804 25.742911618268096 373.1432157743744 109.85965125663652z" fill="rgba(28, 83, 142, 0.4)" class="triangle-float3"></path><path d="M1399.2023067060568 133.98920512059362L1236.6435942667451 122.62199260607069 1225.2763817522223 285.1807050453823 1387.835094191534 296.5479175599053z" fill="rgba(28, 83, 142, 0.4)" class="triangle-float1"></path><path d="M638.6178602782027 274.3470303171373L556.252128211258 205.23397491811733 487.13907281223806 287.599706985062 569.5048048791828 356.712762384082z" fill="rgba(28, 83, 142, 0.4)" class="triangle-float3"></path><path d="M296.3756851666109 219.69681758171095L185.06595765668675 157.99682810821872 123.36596818319452 269.30655561814285 234.67569569311866 331.0065450916351z" fill="rgba(28, 83, 142, 0.4)" class="triangle-float2"></path><path d="M408.02,651.312C447.879,650.981,479.575,622.253,499.834,587.926C520.506,552.899,532.041,510.273,512.219,474.758C491.994,438.52,449.402,420.29,408.02,423.421C371.221,426.205,346.217,456.624,327.965,488.698C309.976,520.309,297.463,556.842,313.527,589.473C331.347,625.67,367.675,651.647,408.02,651.312" fill="rgba(28, 83, 142, 0.4)" class="triangle-float2"></path><path d="M642.584,449.646C670.141,448.372,694.813,432.707,707.858,408.401C720.23,385.349,716.917,358.007,703.967,335.275C690.868,312.28,668.974,295.788,642.584,293.814C612.142,291.537,579.246,298.926,562.926,324.724C545.681,351.984,548.6,387.765,565.943,414.963C582.102,440.303,612.562,451.034,642.584,449.646" fill="rgba(28, 83, 142, 0.4)" class="triangle-float2"></path><path d="M951.3250008626271 264.39242266562627L866.5846913229027 279.33442559106663 881.526694248343 364.07473513079105 966.2670037880674 349.1327322053507z" fill="rgba(28, 83, 142, 0.4)" class="triangle-float3"></path><path d="M359.0989250867724 360.5927506188547L333.709572757072 241.14523918838935 214.26206132660664 266.53459151808977 239.65141365630703 385.9821029485551z" fill="rgba(28, 83, 142, 0.4)" class="triangle-float3"></path><path d="M125.311,582.074C182.893,585.087,239.794,559.2,269.66,509.877C300.553,458.858,303.46,392.386,270.116,342.935C239.7,297.827,179.716,295.838,125.311,295.803C70.817,295.768,8.26,296.044,-19.815,342.749C-48.394,390.291,-23.81,448.596,4.952,496.028C32.36,541.226,72.524,579.312,125.311,582.074" fill="rgba(28, 83, 142, 0.4)" class="triangle-float3"></path></g><defs><mask id="SvgjsMask1014"><rect width="1440" height="560" fill="#ffffff"></rect></mask><style>
                @keyframes float1 {
                    0%{transform: translate(0, 0)}
                    50%{transform: translate(-10px, 0)}
                    100%{transform: translate(0, 0)}
                }

                .triangle-float1 {
                    animation: float1 5s infinite;
                }

                @keyframes float2 {
                    0%{transform: translate(0, 0)}
                    50%{transform: translate(-5px, -5px)}
                    100%{transform: translate(0, 0)}
                }

                .triangle-float2 {
                    animation: float2 4s infinite;
                }

                @keyframes float3 {
                    0%{transform: translate(0, 0)}
                    50%{transform: translate(0, -10px)}
                    100%{transform: translate(0, 0)}
                }

                .triangle-float3 {
                    animation: float3 6s infinite;
                }
            </style></defs></svg>