<svg xmlns="http://www.w3.org/2000/svg" xmlns:xlink="http://www.w3.org/1999/xlink" width="40" height="40" viewBox="0 0 40 40"><defs><style>.cls-1{fill:url(#linear-gradient);}.cls-2{fill:#000e4b;isolation:isolate;opacity:0.8;}.cls-3{fill:none;}</style><linearGradient id="linear-gradient" x1="4.57" y1="32.77" x2="33.49" y2="16.07" gradientUnits="userSpaceOnUse"><stop offset="0" stop-color="#8c00ff"/><stop offset="1" stop-color="#6987d7"/></linearGradient></defs><g id="Layer_2" data-name="Layer 2"><g id="Layer_1-2" data-name="Layer 1"><path id="_2683295621_shock_x5F_color_grid" data-name="2683295621_shock_x5F_color_grid" class="cls-1" d="M15.79,22.11a5.2,5.2,0,0,1,5.26,5.26h2.11a4.21,4.21,0,1,1,0,8.42H6.32V31.58a4.22,4.22,0,0,1,4.21-4.21A5.2,5.2,0,0,1,15.79,22.11Zm17.89-4.74A3.73,3.73,0,0,0,30,13.68h-.42a6.32,6.32,0,0,0-6.21-5h-.74A5.87,5.87,0,0,0,17.16,14a4.89,4.89,0,0,1-.11,1.26A6.52,6.52,0,0,1,21,20.32l.1,1.05s1.79-.32,2.11-.32H30A3.72,3.72,0,0,0,33.68,17.37Z"/><path class="cls-2" d="M40,15.26a5.78,5.78,0,0,0-4.11-5.79,6.56,6.56,0,0,0-6.42-5.26,6.49,6.49,0,0,0-6.1,4.42,6.24,6.24,0,0,0-5.26,2.53,6.22,6.22,0,0,1,1.89.95,3.62,3.62,0,0,1,3.79-1.27,1.11,1.11,0,0,0,.84-.1,1.06,1.06,0,0,0,.42-.74,4.59,4.59,0,0,1,4.42-3.68,4.3,4.3,0,0,1,4.32,4.1,1,1,0,0,0,.84.95,3.82,3.82,0,0,1,3.26,3.89A3.73,3.73,0,0,1,34.21,19H25a2.39,2.39,0,0,1,.1.84l.21,1.58a5.9,5.9,0,0,1,4.11,5.05,1,1,0,0,0,1.05.95h2.11a3.16,3.16,0,0,1,0,6.31H7.79A5.65,5.65,0,0,1,2.11,28C2.11,25.79,3,23,7,21.89A1.1,1.1,0,0,0,7.79,21,6.62,6.62,0,0,1,21,20.21l.1,1.05L23.16,21l-.11-1.06a8.72,8.72,0,0,0-17.26,0C2.11,21.37,0,24.21,0,28a7.77,7.77,0,0,0,7.79,7.79H32.63a5.27,5.27,0,0,0,0-10.53H31.37A7.2,7.2,0,0,0,29,21.05h5.16A5.79,5.79,0,0,0,40,15.26Z"/><rect class="cls-3" width="40" height="40"/></g></g></svg>