<svg xmlns="http://www.w3.org/2000/svg" version="1.1" xmlns:xlink="http://www.w3.org/1999/xlink" xmlns:svgjs="http://svgjs.dev/svgjs" width="1440" height="560" preserveAspectRatio="none" viewBox="0 0 1440 560"><g mask="url(&quot;#SvgjsMask1061&quot;)" fill="none"><path d="M1399.9099999999999 661.54 L1329.98 679.49L1339.1743319565228 644.744331956523z" stroke="rgba(225, 193, 8, 1)" stroke-width="1.53" stroke-dasharray="2, 2"></path><path d="M1042.98 673.1500000000001 L1152.98 576.59L1197.5814011358657 724.4714011358659z" fill="#e73635"></path><rect width="60" height="60" clip-path="url(&quot;#SvgjsClipPath1062&quot;)" x="535.18" y="383.67" fill="url(&quot;#SvgjsPattern1063&quot;)" transform="rotate(88.67, 565.18, 413.67)"></rect><circle r="46.666666666666664" cx="100.58" cy="5.4" stroke="#e73635" stroke-width="2.87" stroke-dasharray="3, 2"></circle><circle r="52.041005600435106" cx="580.37" cy="178.52" fill="#e73635"></circle><rect width="204" height="204" clip-path="url(&quot;#SvgjsClipPath1064&quot;)" x="-66.58" y="356.76" fill="url(&quot;#SvgjsPattern1065&quot;)" transform="rotate(181.15, 35.42, 458.76)"></rect><path d="M132.35 64.44a5.6 5.6 0 1 0 7.7 8.14 5.6 5.6 0 1 0-7.7-8.14zM143.34 76.06a5.6 5.6 0 1 0 7.7 8.14 5.6 5.6 0 1 0-7.7-8.14zM154.33 87.69a5.6 5.6 0 1 0 7.7 8.14 5.6 5.6 0 1 0-7.7-8.14zM165.33 99.32a5.6 5.6 0 1 0 7.69 8.14 5.6 5.6 0 1 0-7.69-8.14z" fill="#e73635"></path><circle r="46.666666666666664" cx="1208.83" cy="91.06" stroke="#e73635" stroke-width="2.05" stroke-dasharray="3, 3"></circle><path d="M1378.52 199.75 L1318.56 191.03L1384.6673332365276 159.26266676347223z" fill="rgba(225, 193, 8, 1)"></path><path d="M36.3 506.8a5.6 5.6 0 1 0 9.4-6.09 5.6 5.6 0 1 0-9.4 6.09zM49.73 498.1a5.6 5.6 0 1 0 9.4-6.09 5.6 5.6 0 1 0-9.4 6.09zM63.16 489.4a5.6 5.6 0 1 0 9.4-6.08 5.6 5.6 0 1 0-9.4 6.08zM76.59 480.71a5.6 5.6 0 1 0 9.4-6.09 5.6 5.6 0 1 0-9.4 6.09z" stroke="rgba(21, 217, 200, 1)" stroke-width="1" stroke-dasharray="2, 2"></path><path d="M1028.42 525.48L1040.35 520.8 1047.52 531.41 1059.45 526.74 1066.62 537.35 1078.55 532.67 1085.72 543.28" stroke="#e73635" stroke-width="2.56" stroke-dasharray="4, 4"></path><rect width="360" height="360" clip-path="url(&quot;#SvgjsClipPath1066&quot;)" x="1249.69" y="322.07" fill="url(&quot;#SvgjsPattern1067&quot;)" transform="rotate(201.98, 1429.69, 502.07)"></rect></g><defs><mask id="SvgjsMask1061"><rect width="1440" height="560" fill="#ffffff"></rect></mask><pattern x="0" y="0" width="6" height="6" patternUnits="userSpaceOnUse" id="SvgjsPattern1063"><path d="M3 1L3 5M1 3L5 3" stroke="#e73635" fill="none" stroke-width="1.26"></path></pattern><clipPath id="SvgjsClipPath1062"><circle r="15" cx="565.18" cy="413.67"></circle></clipPath><pattern x="0" y="0" width="6" height="6" patternUnits="userSpaceOnUse" id="SvgjsPattern1065"><path d="M0 6L3 0L6 6" stroke="#e73635" fill="none"></path></pattern><clipPath id="SvgjsClipPath1064"><circle r="51" cx="35.42" cy="458.76"></circle></clipPath><pattern x="0" y="0" width="6" height="6" patternUnits="userSpaceOnUse" id="SvgjsPattern1067"><path d="M0 6L3 0L6 6" stroke="rgba(225, 193, 8, 1)" fill="none"></path></pattern><clipPath id="SvgjsClipPath1066"><circle r="90" cx="1429.69" cy="502.07"></circle></clipPath></defs></svg>