<svg xmlns="http://www.w3.org/2000/svg" xmlns:xlink="http://www.w3.org/1999/xlink" width="40" height="40" viewBox="0 0 40 40"><defs><style>.cls-1{fill:none;}.cls-2{fill:url(#New_Gradient_Swatch);}.cls-3{fill:#000e4b;isolation:isolate;opacity:0.8;}</style><linearGradient id="New_Gradient_Swatch" x1="8" y1="30.05" x2="36.01" y2="13.87" gradientUnits="userSpaceOnUse"><stop offset="0" stop-color="#8c00ff"/><stop offset="1" stop-color="#6987d7"/></linearGradient></defs><g id="Layer_2" data-name="Layer 2"><g id="Layer_1-2" data-name="Layer 1"><rect class="cls-1" width="40" height="40"/><path id="_268595814_shock_x5F_color_grid" data-name="268595814_shock_x5F_color_grid" class="cls-2" d="M23.16,10.53c-.84,0-1.58.1-2.42.1a2.06,2.06,0,0,1,1.37,2,2.11,2.11,0,1,1-4.22,0A2.19,2.19,0,0,1,18.74,11a18.12,18.12,0,0,0-8.11,3.79,2.16,2.16,0,0,1,2,2.1A2.11,2.11,0,0,1,10.53,19a2.14,2.14,0,0,1-2.11-1.79,11.27,11.27,0,0,0-2.1,6.63c0,5.05,2.84,9.16,7.47,11.47a26.44,26.44,0,0,0,5.16.53h2.1a3.86,3.86,0,0,0,4.21-4,3.68,3.68,0,0,0-2.63-3.68l-2.31-.85a2,2,0,0,1-1.37-2,2.11,2.11,0,0,1,2.1-2.1,8.3,8.3,0,0,1,4.11,1.68c2,1.16,4.21,2.53,7.26,2.53a7.13,7.13,0,0,0,7.37-5.58C38.63,15.26,31.89,10.53,23.16,10.53ZM11.58,27.37a1.06,1.06,0,0,1,0-2.11,1.06,1.06,0,0,1,0,2.11ZM29.47,19a2.11,2.11,0,1,1,2.11-2.11A2.11,2.11,0,0,1,29.47,19Z"/><path class="cls-3" d="M21.05,35.79V33.68c1.9,0,2.11-1.36,2.11-1.89A1.75,1.75,0,0,0,22,30l-2.32-.84a4.09,4.09,0,0,1-2.84-3.9,4.23,4.23,0,0,1,4.21-4.21c1.9,0,3.48.95,5.16,2,1.9,1.06,3.79,2.21,6.21,2.21,3.37,0,5.47-2.1,5.47-5.26,0-7.79-7.68-13.68-17.89-13.68S2.11,12.21,2.11,20c0,8.11,6.94,13.68,16.84,13.68v2.11C8,35.79,0,29.16,0,20S8.63,4.21,20,4.21,40,11,40,20a7.19,7.19,0,0,1-7.58,7.37c-3.05,0-5.26-1.37-7.26-2.53a8.3,8.3,0,0,0-4.11-1.68,2.11,2.11,0,0,0-2.1,2.1,2.13,2.13,0,0,0,1.37,2l2.31.85a4,4,0,0,1-1.58,7.68Zm-9.47-6.32a3.16,3.16,0,1,1,0-6.31,3.16,3.16,0,1,1,0,6.31Zm0-4.21a1.06,1.06,0,0,0,0,2.11,1.06,1.06,0,0,0,0-2.11Zm17.89-4.21a4.21,4.21,0,1,1,4.21-4.21A4.22,4.22,0,0,1,29.47,21.05Zm0-6.31a2.11,2.11,0,1,0,2.11,2.1A2.11,2.11,0,0,0,29.47,14.74ZM10.53,21.05a4.21,4.21,0,1,1,4.21-4.21A4.22,4.22,0,0,1,10.53,21.05Zm0-6.31a2.11,2.11,0,1,0,2.1,2.1A2.11,2.11,0,0,0,10.53,14.74ZM20,16.84a4.21,4.21,0,1,1,4.21-4.21A4.22,4.22,0,0,1,20,16.84Zm0-6.31a2.11,2.11,0,1,0,2.11,2.1A2.11,2.11,0,0,0,20,10.53Z"/></g></g></svg>