<svg xmlns="http://www.w3.org/2000/svg" xmlns:xlink="http://www.w3.org/1999/xlink" width="40" height="40" viewBox="0 0 40 40"><defs><style>.cls-1{fill:none;}.cls-2{fill:url(#New_Gradient_Swatch);}.cls-3{fill:#000e4b;isolation:isolate;opacity:0.8;}</style><linearGradient id="New_Gradient_Swatch" x1="9.58" y1="36.26" x2="36.73" y2="20.58" gradientUnits="userSpaceOnUse"><stop offset="0" stop-color="#8c00ff"/><stop offset="1" stop-color="#6987d7"/></linearGradient></defs><g id="Layer_2" data-name="Layer 2"><g id="Layer_1-2" data-name="Layer 1"><rect class="cls-1" width="40" height="40"/><rect id="_268154936_shock_x5F_color_grid" data-name="268154936_shock_x5F_color_grid" class="cls-2" x="10.53" y="18.95" width="25.26" height="18.95"/><path class="cls-3" d="M35.79,37.89H4.21V14.74h6.32V11.58a9.47,9.47,0,1,1,18.94,0v3.16h6.32ZM6.32,35.79H33.68V16.84H14.74v-2.1H27.37V11.58a7.37,7.37,0,0,0-14.74,0v5.26H6.32Zm16.66-5-3-3-3,3-1.49-1.49,3-3-3-3L17,21.85l3,3,3-3,1.49,1.49-3,3,3,3Z"/></g></g></svg>